<svg width="737" height="429" viewBox="0 0 737 429" fill="none" xmlns="http://www.w3.org/2000/svg">
    <g id="Frame 1">
        <g id="Rectangle 1" filter="url(#filter0_d)">
            <path d="M145.22 146.857C144.439 143.686 146.339 140.473 149.493 139.628L661.549 2.42259C664.75 1.56494 668.04 3.46444 668.898 6.66524L730.579 236.862C731.439 240.074 729.524 243.373 726.309 244.218L173.632 389.527L73.1644 413.167C70.0084 413.91 66.8333 412.011 65.9944 408.879L39.0633 308.335C38.2018 305.119 40.1238 301.816 43.3457 300.976L168.999 268.226C172.175 267.399 174.096 264.173 173.312 260.986L145.22 146.857Z" fill="#D1D1D1"/>
        </g>
        <g class="svgTable" id="Table7">
            <g id="Rectangle 2" filter="url(#filter1_d)">
                <rect x="541" y="130.712" width="76.1608" height="46.9048" rx="6" transform="rotate(-15 541 130.712)" fill="#EBEBEB"/>
            </g>
            <path id="Vector" d="M560.051 154.354L567.92 152.245L571.284 160.551L572.275 160.286L569.973 151.695L569.206 148.832L566.799 149.477L559.534 151.423L559.476 151.439L554.442 136.419L552.706 136.885L556.798 152.157L557.053 153.111L557.565 155.02L559.867 163.611L561.603 163.145L560.051 154.354Z" fill="#444444"/>
            <path id="Vector_2" d="M559.883 150.307L568.473 148.005C568.737 147.935 568.893 147.664 568.822 147.4C568.752 147.137 568.481 146.98 568.217 147.051L559.627 149.353C559.364 149.423 559.207 149.694 559.278 149.958C559.348 150.221 559.619 150.378 559.883 150.307Z" fill="#444444"/>
            <path id="Vector_3" d="M608.287 138.36L608.229 138.376L600.964 140.322L597.841 141.159L598.608 144.023L600.91 152.613L602.617 152.156L601.377 143.281L609.246 141.172L612.298 149.562L614.273 149.032L611.971 140.442L611.46 138.533L611.204 137.578L607.112 122.307L605.137 122.836L608.287 138.36Z" fill="#444444"/>
            <path id="Vector_4" d="M597.457 139.727C597.528 139.991 597.799 140.147 598.063 140.077L606.653 137.775C606.917 137.704 607.073 137.433 607.002 137.17C606.932 136.906 606.661 136.75 606.397 136.82L597.807 139.122C597.543 139.193 597.387 139.464 597.457 139.727Z" fill="#444444"/>
            <path id="Vector_5" d="M562.973 141.295L570.722 139.218L576.093 159.263L577.569 158.867L574.367 142.334L590.219 138.086L595.713 154.006L597.092 153.636L591.721 133.592L600.425 131.259C600.89 131.135 601.165 130.658 601.041 130.193L600.98 129.966C600.855 129.501 600.379 129.226 599.914 129.35L562.461 139.386C561.996 139.51 561.721 139.987 561.846 140.452L561.907 140.679C562.031 141.144 562.508 141.419 562.973 141.295ZM588.926 134.341L589.572 136.214L573.99 140.389L573.613 138.444L588.926 134.341Z" fill="#444444"/>
        </g>
        <g class="svgTable" id="Table6">
            <g id="Rectangle 2_2" filter="url(#filter2_d)">
                <rect x="455" y="240.712" width="76.1608" height="46.9048" rx="6" transform="rotate(-15 455 240.712)" fill="#EBEBEB"/>
            </g>
            <path id="Vector_6" d="M474.051 264.354L481.92 262.245L485.284 270.551L486.275 270.286L483.973 261.695L483.206 258.832L480.799 259.477L473.534 261.423L473.476 261.439L468.442 246.419L466.706 246.885L470.798 262.157L471.053 263.111L471.565 265.02L473.867 273.611L475.603 273.145L474.051 264.354Z" fill="#444444"/>
            <path id="Vector_7" d="M473.883 260.307L482.473 258.005C482.737 257.935 482.893 257.664 482.822 257.4C482.752 257.137 482.481 256.98 482.217 257.051L473.627 259.353C473.364 259.423 473.207 259.694 473.278 259.958C473.348 260.221 473.619 260.378 473.883 260.307Z" fill="#444444"/>
            <path id="Vector_8" d="M522.287 248.36L522.229 248.376L514.964 250.322L511.841 251.159L512.608 254.023L514.91 262.613L516.617 262.156L515.377 253.281L523.246 251.172L526.298 259.562L528.273 259.032L525.971 250.442L525.46 248.533L525.204 247.578L521.112 232.307L519.137 232.836L522.287 248.36Z" fill="#444444"/>
            <path id="Vector_9" d="M511.457 249.727C511.528 249.991 511.799 250.147 512.063 250.077L520.653 247.775C520.917 247.704 521.073 247.433 521.002 247.17C520.932 246.906 520.661 246.75 520.397 246.82L511.807 249.122C511.543 249.193 511.387 249.464 511.457 249.727Z" fill="#444444"/>
            <path id="Vector_10" d="M476.973 251.295L484.722 249.218L490.093 269.263L491.569 268.867L488.367 252.334L504.219 248.086L509.713 264.006L511.092 263.636L505.721 243.592L514.425 241.259C514.89 241.135 515.165 240.658 515.041 240.193L514.98 239.966C514.855 239.501 514.379 239.226 513.914 239.35L476.461 249.386C475.996 249.51 475.721 249.987 475.846 250.452L475.907 250.679C476.031 251.144 476.508 251.419 476.973 251.295ZM502.926 244.341L503.572 246.214L487.99 250.389L487.613 248.444L502.926 244.341Z" fill="#444444"/>
        </g>
        <g class="svgTable" id="Table5">
            <g id="Rectangle 2_3" filter="url(#filter3_d)">
                <rect x="415" y="92.7119" width="76.1608" height="46.9048" rx="6" transform="rotate(-15 415 92.7119)" fill="#EBEBEB"/>
            </g>
            <path id="Vector_11" d="M434.051 116.354L441.92 114.245L445.284 122.551L446.275 122.286L443.973 113.695L443.206 110.832L440.799 111.477L433.534 113.423L433.476 113.439L428.442 98.4194L426.706 98.8846L430.798 114.157L431.053 115.111L431.565 117.02L433.867 125.611L435.603 125.145L434.051 116.354Z" fill="#444444"/>
            <path id="Vector_12" d="M433.883 112.307L442.473 110.005C442.737 109.935 442.893 109.664 442.822 109.4C442.752 109.137 442.481 108.98 442.217 109.051L433.627 111.353C433.364 111.423 433.207 111.694 433.278 111.958C433.348 112.221 433.619 112.378 433.883 112.307Z" fill="#444444"/>
            <path id="Vector_13" d="M482.287 100.36L482.229 100.376L474.964 102.322L471.841 103.159L472.608 106.023L474.91 114.613L476.617 114.156L475.377 105.281L483.246 103.172L486.298 111.562L488.273 111.032L485.971 102.442L485.46 100.533L485.204 99.5785L481.112 84.3065L479.137 84.8357L482.287 100.36Z" fill="#444444"/>
            <path id="Vector_14" d="M471.457 101.727C471.528 101.991 471.799 102.147 472.063 102.077L480.653 99.7748C480.917 99.7042 481.073 99.4331 481.002 99.1697C480.932 98.9063 480.661 98.7498 480.397 98.8204L471.807 101.122C471.543 101.193 471.387 101.464 471.457 101.727Z" fill="#444444"/>
            <path id="Vector_15" d="M436.973 103.295L444.722 101.218L450.093 121.263L451.569 120.867L448.367 104.334L464.219 100.086L469.713 116.006L471.092 115.636L465.721 95.5917L474.425 93.2594C474.89 93.1349 475.165 92.658 475.041 92.1932L474.98 91.9661C474.855 91.5012 474.379 91.2259 473.914 91.3504L436.461 101.386C435.996 101.51 435.721 101.987 435.846 102.452L435.907 102.679C436.031 103.144 436.508 103.419 436.973 103.295ZM462.926 96.3408L463.572 98.2137L447.99 102.389L447.613 100.444L462.926 96.3408Z" fill="#444444"/>
        </g>
        <g class="svgTable" id="Table4">
            <g id="Rectangle 2_4" filter="url(#filter4_d)">
                <rect x="316" y="201.712" width="76.1608" height="46.9048" rx="6" transform="rotate(-15 316 201.712)" fill="#EBEBEB"/>
            </g>
            <path id="Vector_16" d="M335.051 225.354L342.92 223.245L346.284 231.551L347.275 231.286L344.973 222.695L344.206 219.832L341.799 220.477L334.534 222.423L334.476 222.439L329.442 207.419L327.706 207.885L331.798 223.157L332.053 224.111L332.565 226.02L334.867 234.611L336.603 234.145L335.051 225.354Z" fill="#444444"/>
            <path id="Vector_17" d="M334.883 221.307L343.473 219.005C343.737 218.935 343.893 218.664 343.822 218.4C343.752 218.137 343.481 217.98 343.217 218.051L334.627 220.353C334.364 220.423 334.207 220.694 334.278 220.958C334.348 221.221 334.619 221.378 334.883 221.307Z" fill="#444444"/>
            <path id="Vector_18" d="M383.287 209.36L383.229 209.376L375.964 211.322L372.841 212.159L373.608 215.023L375.91 223.613L377.617 223.156L376.377 214.281L384.246 212.172L387.298 220.562L389.273 220.032L386.971 211.442L386.46 209.533L386.204 208.578L382.112 193.307L380.137 193.836L383.287 209.36Z" fill="#444444"/>
            <path id="Vector_19" d="M372.457 210.727C372.528 210.991 372.799 211.147 373.063 211.077L381.653 208.775C381.916 208.704 382.073 208.433 382.002 208.17C381.932 207.906 381.661 207.75 381.397 207.82L372.807 210.122C372.543 210.193 372.387 210.464 372.457 210.727Z" fill="#444444"/>
            <path id="Vector_20" d="M337.973 212.295L345.722 210.218L351.093 230.263L352.569 229.867L349.367 213.334L365.219 209.086L370.713 225.006L372.092 224.636L366.721 204.592L375.425 202.259C375.89 202.135 376.165 201.658 376.041 201.193L375.98 200.966C375.855 200.501 375.379 200.226 374.914 200.35L337.461 210.386C336.996 210.51 336.721 210.987 336.846 211.452L336.907 211.679C337.031 212.144 337.508 212.419 337.973 212.295ZM363.926 205.341L364.572 207.214L348.99 211.389L348.613 209.444L363.926 205.341Z" fill="#444444"/>
        </g>
        <g class="svgTable" id="Table3">
            <g id="Rectangle 2_5" filter="url(#filter5_d)">
                <rect x="230" y="303.712" width="76.1608" height="46.9048" rx="6" transform="rotate(-15 230 303.712)" fill="#EBEBEB"/>
            </g>
            <path id="Vector_21" d="M249.051 327.354L256.92 325.245L260.284 333.551L261.275 333.286L258.973 324.695L258.206 321.832L255.799 322.477L248.534 324.423L248.476 324.439L243.442 309.419L241.706 309.885L245.798 325.157L246.053 326.111L246.565 328.02L248.867 336.611L250.603 336.145L249.051 327.354Z" fill="#444444"/>
            <path id="Vector_22" d="M248.883 323.307L257.473 321.005C257.737 320.935 257.893 320.664 257.822 320.4C257.752 320.137 257.481 319.98 257.217 320.051L248.627 322.353C248.364 322.423 248.207 322.694 248.278 322.958C248.348 323.221 248.619 323.378 248.883 323.307Z" fill="#444444"/>
            <path id="Vector_23" d="M297.287 311.36L297.229 311.376L289.964 313.322L286.841 314.159L287.608 317.023L289.91 325.613L291.617 325.156L290.377 316.281L298.246 314.172L301.298 322.562L303.273 322.032L300.971 313.442L300.46 311.533L300.204 310.578L296.112 295.307L294.137 295.836L297.287 311.36Z" fill="#444444"/>
            <path id="Vector_24" d="M286.457 312.727C286.528 312.991 286.799 313.147 287.063 313.077L295.653 310.775C295.917 310.704 296.073 310.433 296.002 310.17C295.932 309.906 295.661 309.75 295.397 309.82L286.807 312.122C286.543 312.193 286.387 312.464 286.457 312.727Z" fill="#444444"/>
            <path id="Vector_25" d="M251.973 314.295L259.722 312.218L265.093 332.263L266.569 331.867L263.367 315.334L279.219 311.086L284.713 327.006L286.092 326.636L280.721 306.592L289.425 304.259C289.89 304.135 290.165 303.658 290.041 303.193L289.98 302.966C289.855 302.501 289.379 302.226 288.914 302.35L251.461 312.386C250.996 312.51 250.721 312.987 250.846 313.452L250.907 313.679C251.031 314.144 251.508 314.419 251.973 314.295ZM277.926 307.341L278.572 309.214L262.99 313.389L262.613 311.444L277.926 307.341Z" fill="#444444"/>
        </g>
        <g class="svgTable" id="Table2">
            <g id="Rectangle 2_6" filter="url(#filter6_d)">
                <rect x="190" y="164.712" width="76.1608" height="46.9048" rx="6" transform="rotate(-15 190 164.712)" fill="#EBEBEB"/>
            </g>
            <path id="Vector_26" d="M209.051 188.354L216.92 186.245L220.284 194.551L221.275 194.286L218.973 185.695L218.206 182.832L215.799 183.477L208.534 185.423L208.476 185.439L203.442 170.419L201.706 170.885L205.798 186.157L206.053 187.111L206.565 189.02L208.867 197.611L210.603 197.145L209.051 188.354Z" fill="#444444"/>
            <path id="Vector_27" d="M208.883 184.307L217.473 182.005C217.737 181.935 217.893 181.664 217.822 181.4C217.752 181.137 217.481 180.98 217.217 181.051L208.627 183.353C208.364 183.423 208.207 183.694 208.278 183.958C208.348 184.221 208.619 184.378 208.883 184.307Z" fill="#444444"/>
            <path id="Vector_28" d="M257.287 172.36L257.229 172.376L249.964 174.322L246.841 175.159L247.608 178.023L249.91 186.613L251.617 186.156L250.377 177.281L258.246 175.172L261.298 183.562L263.273 183.032L260.971 174.442L260.46 172.533L260.204 171.578L256.112 156.307L254.137 156.836L257.287 172.36Z" fill="#444444"/>
            <path id="Vector_29" d="M246.457 173.727C246.528 173.991 246.799 174.147 247.063 174.077L255.653 171.775C255.917 171.704 256.073 171.433 256.002 171.17C255.932 170.906 255.661 170.75 255.397 170.82L246.807 173.122C246.543 173.193 246.387 173.464 246.457 173.727Z" fill="#444444"/>
            <path id="Vector_30" d="M211.973 175.295L219.722 173.218L225.093 193.263L226.569 192.867L223.367 176.334L239.219 172.086L244.713 188.006L246.092 187.636L240.721 167.592L249.425 165.259C249.89 165.135 250.165 164.658 250.041 164.193L249.98 163.966C249.855 163.501 249.379 163.226 248.914 163.35L211.461 173.386C210.996 173.51 210.721 173.987 210.846 174.452L210.907 174.679C211.031 175.144 211.508 175.419 211.973 175.295ZM237.926 168.341L238.572 170.214L222.99 174.389L222.613 172.444L237.926 168.341Z" fill="#444444"/>
        </g>
        <g class="svgTable" id="Table1">
            <g id="Rectangle 2_7" filter="url(#filter7_d)">
                <rect x="95" y="339.712" width="76.1608" height="46.9048" rx="6" transform="rotate(-15 95 339.712)" fill="#EBEBEB"/>
            </g>
            <path id="Vector_31" d="M114.051 363.354L121.92 361.245L125.284 369.551L126.275 369.286L123.973 360.695L123.206 357.832L120.799 358.477L113.534 360.423L113.476 360.439L108.442 345.419L106.706 345.885L110.798 361.157L111.053 362.111L111.565 364.02L113.867 372.611L115.603 372.145L114.051 363.354Z" fill="#444444"/>
            <path id="Vector_32" d="M113.883 359.307L122.473 357.005C122.737 356.935 122.893 356.664 122.822 356.4C122.752 356.137 122.481 355.98 122.217 356.051L113.627 358.353C113.364 358.423 113.207 358.694 113.278 358.958C113.348 359.221 113.619 359.378 113.883 359.307Z" fill="#444444"/>
            <path id="Vector_33" d="M162.287 347.36L162.229 347.376L154.964 349.322L151.841 350.159L152.608 353.023L154.91 361.613L156.617 361.156L155.377 352.281L163.246 350.172L166.298 358.562L168.273 358.032L165.971 349.442L165.46 347.533L165.204 346.578L161.112 331.307L159.137 331.836L162.287 347.36Z" fill="#444444"/>
            <path id="Vector_34" d="M151.457 348.727C151.528 348.991 151.799 349.147 152.063 349.077L160.653 346.775C160.917 346.704 161.073 346.433 161.002 346.17C160.932 345.906 160.661 345.75 160.397 345.82L151.807 348.122C151.543 348.193 151.387 348.464 151.457 348.727Z" fill="#444444"/>
            <path id="Vector_35" d="M116.973 350.295L124.722 348.218L130.093 368.263L131.569 367.867L128.367 351.334L144.219 347.086L149.713 363.006L151.092 362.636L145.721 342.592L154.425 340.259C154.89 340.135 155.165 339.658 155.041 339.193L154.98 338.966C154.855 338.501 154.379 338.226 153.914 338.35L116.461 348.386C115.996 348.51 115.721 348.987 115.846 349.452L115.907 349.679C116.031 350.144 116.508 350.419 116.973 350.295ZM142.926 343.341L143.572 345.214L127.99 349.389L127.613 347.444L142.926 343.341Z" fill="#444444"/>
        </g>
        <g id="Door">
            <g id="Rectangle 4" filter="url(#filter8_d)">
                <rect x="17" y="320.187" width="31.6336" height="49.4993" rx="6" transform="rotate(-15 17 320.187)" fill="#D1D1D1"/>
            </g>
            <path id="Vector_36" d="M42.8105 323.246L25.9181 327.772C25.4111 327.908 25.1101 328.429 25.246 328.936L33.3474 359.171C33.4833 359.678 34.0045 359.979 34.5115 359.843L51.4039 355.317C51.9108 355.181 52.2118 354.66 52.076 354.153L43.9745 323.918C43.8387 323.411 43.3175 323.11 42.8105 323.246ZM49.9938 353.727L34.9376 357.761L27.3281 329.362L42.3844 325.328L49.9938 353.727Z" fill="#3D3D3D"/>
            <path id="Vector_37" d="M37.819 338.402C40.1476 337.778 41.5344 335.376 40.9105 333.048C40.2866 330.719 37.8844 329.332 35.5558 329.956C33.2273 330.58 31.8404 332.982 32.4643 335.311C33.0882 337.639 35.4904 339.026 37.819 338.402ZM36.0478 331.792C37.3641 331.44 38.7217 332.223 39.0744 333.54C39.427 334.856 38.6432 336.213 37.327 336.566C36.0108 336.919 34.6531 336.135 34.3004 334.819C33.9478 333.503 34.7316 332.145 36.0478 331.792Z" fill="#3D3D3D"/>
            <path id="Vector_38" d="M42.394 341.889C42.5299 342.396 43.0511 342.697 43.5581 342.561L44.9352 342.192C45.4421 342.056 45.7431 341.535 45.6072 341.028C45.4714 340.521 44.9501 340.22 44.4432 340.356L43.0661 340.725C42.5591 340.861 42.2582 341.382 42.394 341.889Z" fill="#3D3D3D"/>
        </g>
        <g id="Washroom">
            <g id="Rectangle 3" filter="url(#filter9_d)">
                <rect x="662" y="41.119" width="42.9604" height="44.446" rx="6" transform="rotate(-15 662 41.119)" fill="#D1D1D1"/>
            </g>
            <path id="Vector_39" d="M672.849 51.2312C673.139 52.3115 673.899 53.1808 674.936 53.6177C675.682 53.9322 676.487 53.9876 677.263 53.7796C678.04 53.5716 678.708 53.1213 679.198 52.4759C679.877 51.5791 680.1 50.4455 679.811 49.3659C679.297 47.4468 677.317 46.3037 675.398 46.8179C673.479 47.3322 672.335 49.3121 672.849 51.2312ZM675.856 48.5279C676.833 48.2663 677.84 48.8483 678.101 49.824C678.248 50.3727 678.134 50.9486 677.787 51.4063C677.289 52.0634 676.383 52.3059 675.623 51.9861C675.094 51.7631 674.707 51.3215 674.56 50.773C674.298 49.7966 674.88 48.7896 675.856 48.5279Z" fill="#3D3D3D"/>
            <path id="Vector_40" d="M675.947 66.6686C676.022 66.6826 676.1 66.6879 676.177 66.6947C676.217 66.6984 676.254 66.7062 676.294 66.7081L676.993 69.3183L676.998 69.3373L677.46 71.0591C677.759 72.1752 678.992 72.8186 680.208 72.4927L680.409 72.4388C681.085 72.2577 681.615 71.8161 681.902 71.2674C682.434 71.6557 683.159 71.807 683.877 71.6146L684.075 71.5614C685.282 71.2381 686.02 70.0661 685.721 68.9499L685.229 67.1145L684.519 64.4654C684.583 64.4208 684.64 64.3704 684.698 64.3208C684.723 64.2999 684.751 64.2815 684.776 64.2589C684.828 64.2097 684.874 64.1568 684.922 64.1047C684.947 64.0763 684.976 64.0501 685 64.021C685.042 63.9698 685.076 63.9141 685.113 63.8608C685.136 63.8271 685.162 63.7949 685.183 63.7601C685.216 63.7059 685.241 63.648 685.268 63.591C685.286 63.5535 685.308 63.519 685.323 63.4808C685.347 63.422 685.363 63.3609 685.382 63.3005C685.393 63.2623 685.409 63.2258 685.418 63.1877C685.433 63.1215 685.44 63.0539 685.449 62.9865C685.453 62.9525 685.462 62.9191 685.465 62.885C685.47 62.8131 685.466 62.7403 685.463 62.669C685.461 62.6379 685.464 62.6082 685.461 62.5775C685.451 62.4745 685.434 62.3719 685.406 62.2696L683.565 55.397C683.135 53.7952 681.059 52.8477 679.921 53.0138L679.501 53.0873L679.285 53.4434C679.17 53.631 679.033 53.8084 678.877 53.9706C678.089 54.7824 676.864 55.0689 675.811 54.7071C675.662 54.6565 675.506 54.5861 675.347 54.4996L675.046 54.3261L674.634 54.4157C673.351 54.7594 672.049 56.7763 672.476 58.3683L674.317 65.2386C674.345 65.3455 674.383 65.4476 674.429 65.5452C674.449 65.5888 674.477 65.6277 674.5 65.6685C674.529 65.7198 674.555 65.7737 674.589 65.8221C674.619 65.8647 674.655 65.902 674.689 65.9425C674.724 65.9844 674.755 66.0287 674.793 66.0678C674.835 66.1103 674.884 66.1469 674.929 66.1859C674.966 66.216 674.998 66.2504 675.036 66.2784C675.089 66.3175 675.147 66.3488 675.204 66.3826C675.241 66.4049 675.275 66.4316 675.313 66.4512C675.382 66.4866 675.455 66.5146 675.528 66.5429C675.559 66.5549 675.587 66.5711 675.618 66.5818C675.702 66.6101 675.789 66.6303 675.877 66.6498C675.9 66.6555 675.922 66.664 675.947 66.6686ZM674.185 57.9104C674.04 57.3696 674.546 56.5672 674.901 56.2517C675.014 56.3008 675.125 56.3444 675.236 56.3824C676.924 56.9612 678.887 56.4988 680.146 55.2037C680.271 55.075 680.387 54.9406 680.496 54.8004C680.99 54.9299 681.724 55.3681 681.854 55.8554L683.695 62.7257C683.715 62.8004 683.615 62.9674 683.406 63.0712C683.374 63.0875 683.34 63.0991 683.311 63.1092L682.449 63.3641L682.471 63.4536L682.426 63.4668L682.63 64.2924C682.633 64.3047 682.645 64.3504 682.663 64.4173L682.665 64.4972L682.714 64.6104C682.905 65.3152 683.36 66.9851 683.521 67.5762L684.011 69.4082C684.051 69.5574 683.891 69.7781 683.618 69.8514L683.419 69.9046C683.146 69.9779 682.896 69.867 682.856 69.7178L681.543 64.8169L679.076 65.4778L680.363 70.2812C680.403 70.4299 680.235 70.6527 679.951 70.7288L679.75 70.7827C679.466 70.8588 679.21 70.7496 679.17 70.601L677.902 65.839L677.869 65.6314L677.551 64.5968L676.689 64.8826L676.677 64.8858C676.62 64.9011 676.51 64.9294 676.48 64.9355C676.232 64.9622 676.047 64.8629 676.026 64.7811L674.185 57.9104V57.9104Z" fill="#3D3D3D"/>
            <path id="Vector_41" d="M704.586 63.2834L703.457 59.0717C703.662 58.978 703.945 58.852 704.339 58.6834C704.458 58.6325 704.535 58.5973 704.548 58.5904C705.508 58.1134 706.006 57.1306 705.758 56.2031L702.399 49.6302C701.911 48.0904 699.898 47.1851 698.784 47.3484L698.364 47.4217L698.148 47.7781C698.034 47.9655 697.896 48.1428 697.74 48.3054C696.951 49.1171 695.726 49.4029 694.675 49.0421C694.538 48.9956 694.396 48.9329 694.218 48.8394L693.926 48.6569L693.497 48.7502C692.242 49.0867 690.968 51.0259 691.313 52.6005L691.663 59.7864L691.691 59.9721C691.948 60.9312 692.935 61.5437 694.035 61.4299C694.139 61.4192 694.245 61.4009 694.351 61.3761L694.444 61.3559C694.451 61.354 694.808 61.2574 695.187 61.1533L696.323 65.3928C696.622 66.5089 697.856 67.1528 699.073 66.8267L699.274 66.7727C699.949 66.5918 700.479 66.1493 700.767 65.6008C701.298 65.9893 702.023 66.1402 702.741 65.9478L702.939 65.8945C704.146 65.5711 704.885 64.3994 704.586 63.2834ZM701.522 58.6087L701.529 58.8306L701.609 59.0139L702.876 63.7416C702.915 63.8902 702.755 64.1111 702.481 64.1845L702.283 64.2378C702.009 64.311 701.76 64.1998 701.72 64.0512L700.407 59.1504L697.94 59.8113L699.227 64.6147C699.267 64.7639 699.1 64.9866 698.816 65.0627L698.615 65.1166C698.331 65.1927 698.074 65.0837 698.034 64.9345L696.767 60.1765L696.735 59.9648L696.414 58.9667L695.561 59.2143C695.456 59.2448 694.253 59.5732 694.024 59.6358L693.963 59.6485C693.928 59.6566 693.894 59.6646 693.856 59.6683C693.647 59.6903 693.484 59.6242 693.424 59.553L693.078 52.4308L693.048 52.2448C692.903 51.704 693.41 50.9017 693.766 50.5857C693.878 50.6351 693.99 50.6785 694.1 50.7167C695.789 51.2954 697.751 50.8343 699.011 49.5377C699.135 49.4106 699.25 49.277 699.36 49.1345C699.854 49.2635 700.588 49.7025 700.718 50.1898L704.047 56.7054C704.032 56.789 703.936 56.9191 703.781 56.9959L703.64 57.057C701.946 57.7852 701.543 57.9581 701.522 58.6087Z" fill="#3D3D3D"/>
            <path id="Vector_42" d="M694.262 41.1523C692.343 41.6667 691.2 43.6463 691.714 45.5654C692.004 46.6457 692.764 47.5149 693.801 47.9523C694.548 48.266 695.351 48.322 696.128 48.1139C696.904 47.9058 697.574 47.4552 698.063 46.8098C698.742 45.9131 698.965 44.7798 698.676 43.7C698.162 41.7809 696.182 40.6379 694.262 41.1523ZM696.651 45.7407C696.153 46.3976 695.248 46.6402 694.488 46.3203C693.959 46.0973 693.572 45.6557 693.425 45.1072C693.163 44.1308 693.745 43.1238 694.721 42.8623C695.698 42.6005 696.705 43.1825 696.966 44.1582C697.113 44.7068 696.998 45.2834 696.651 45.7407Z" fill="#3D3D3D"/>
            <path id="Vector_43" d="M692.881 71.6837L684.938 42.0427C684.812 41.5707 684.327 41.2902 683.854 41.4169C683.382 41.5435 683.102 42.029 683.228 42.5009L691.171 72.1419C691.297 72.614 691.782 72.8945 692.255 72.7679C692.727 72.6413 693.007 72.1558 692.881 71.6837Z" fill="#3D3D3D"/>
        </g>
    </g>
    <defs>
        <filter id="filter0_d" x="0.274902" y="0.86969" width="735.857" height="427.457" filterUnits="userSpaceOnUse" color-interpolation-filters="sRGB">
            <feFlood flood-opacity="0" result="BackgroundImageFix"/>
            <feColorMatrix in="SourceAlpha" type="matrix" values="0 0 0 0 0 0 0 0 0 0 0 0 0 0 0 0 0 0 127 0"/>
            <feOffset dy="4"/>
            <feGaussianBlur stdDeviation="2"/>
            <feColorMatrix type="matrix" values="0 0 0 0 0 0 0 0 0 0 0 0 0 0 0 0 0 0 0.25 0"/>
            <feBlend mode="normal" in2="BackgroundImageFix" result="effect1_dropShadow"/>
            <feBlend mode="normal" in="SourceGraphic" in2="effect1_dropShadow" result="shape"/>
        </filter>
        <filter id="filter1_d" x="537" y="111" width="93.7055" height="73.0184" filterUnits="userSpaceOnUse" color-interpolation-filters="sRGB">
            <feFlood flood-opacity="0" result="BackgroundImageFix"/>
            <feColorMatrix in="SourceAlpha" type="matrix" values="0 0 0 0 0 0 0 0 0 0 0 0 0 0 0 0 0 0 127 0"/>
            <feOffset dy="4"/>
            <feGaussianBlur stdDeviation="2"/>
            <feColorMatrix type="matrix" values="0 0 0 0 0 0 0 0 0 0 0 0 0 0 0 0 0 0 0.25 0"/>
            <feBlend mode="normal" in2="BackgroundImageFix" result="effect1_dropShadow"/>
            <feBlend mode="normal" in="SourceGraphic" in2="effect1_dropShadow" result="shape"/>
        </filter>
        <filter id="filter2_d" x="451" y="221" width="93.7055" height="73.0184" filterUnits="userSpaceOnUse" color-interpolation-filters="sRGB">
            <feFlood flood-opacity="0" result="BackgroundImageFix"/>
            <feColorMatrix in="SourceAlpha" type="matrix" values="0 0 0 0 0 0 0 0 0 0 0 0 0 0 0 0 0 0 127 0"/>
            <feOffset dy="4"/>
            <feGaussianBlur stdDeviation="2"/>
            <feColorMatrix type="matrix" values="0 0 0 0 0 0 0 0 0 0 0 0 0 0 0 0 0 0 0.25 0"/>
            <feBlend mode="normal" in2="BackgroundImageFix" result="effect1_dropShadow"/>
            <feBlend mode="normal" in="SourceGraphic" in2="effect1_dropShadow" result="shape"/>
        </filter>
        <filter id="filter3_d" x="411" y="73" width="93.7055" height="73.0184" filterUnits="userSpaceOnUse" color-interpolation-filters="sRGB">
            <feFlood flood-opacity="0" result="BackgroundImageFix"/>
            <feColorMatrix in="SourceAlpha" type="matrix" values="0 0 0 0 0 0 0 0 0 0 0 0 0 0 0 0 0 0 127 0"/>
            <feOffset dy="4"/>
            <feGaussianBlur stdDeviation="2"/>
            <feColorMatrix type="matrix" values="0 0 0 0 0 0 0 0 0 0 0 0 0 0 0 0 0 0 0.25 0"/>
            <feBlend mode="normal" in2="BackgroundImageFix" result="effect1_dropShadow"/>
            <feBlend mode="normal" in="SourceGraphic" in2="effect1_dropShadow" result="shape"/>
        </filter>
        <filter id="filter4_d" x="312" y="182" width="93.7055" height="73.0184" filterUnits="userSpaceOnUse" color-interpolation-filters="sRGB">
            <feFlood flood-opacity="0" result="BackgroundImageFix"/>
            <feColorMatrix in="SourceAlpha" type="matrix" values="0 0 0 0 0 0 0 0 0 0 0 0 0 0 0 0 0 0 127 0"/>
            <feOffset dy="4"/>
            <feGaussianBlur stdDeviation="2"/>
            <feColorMatrix type="matrix" values="0 0 0 0 0 0 0 0 0 0 0 0 0 0 0 0 0 0 0.25 0"/>
            <feBlend mode="normal" in2="BackgroundImageFix" result="effect1_dropShadow"/>
            <feBlend mode="normal" in="SourceGraphic" in2="effect1_dropShadow" result="shape"/>
        </filter>
        <filter id="filter5_d" x="226" y="284" width="93.7055" height="73.0184" filterUnits="userSpaceOnUse" color-interpolation-filters="sRGB">
            <feFlood flood-opacity="0" result="BackgroundImageFix"/>
            <feColorMatrix in="SourceAlpha" type="matrix" values="0 0 0 0 0 0 0 0 0 0 0 0 0 0 0 0 0 0 127 0"/>
            <feOffset dy="4"/>
            <feGaussianBlur stdDeviation="2"/>
            <feColorMatrix type="matrix" values="0 0 0 0 0 0 0 0 0 0 0 0 0 0 0 0 0 0 0.25 0"/>
            <feBlend mode="normal" in2="BackgroundImageFix" result="effect1_dropShadow"/>
            <feBlend mode="normal" in="SourceGraphic" in2="effect1_dropShadow" result="shape"/>
        </filter>
        <filter id="filter6_d" x="186" y="145" width="93.7055" height="73.0184" filterUnits="userSpaceOnUse" color-interpolation-filters="sRGB">
            <feFlood flood-opacity="0" result="BackgroundImageFix"/>
            <feColorMatrix in="SourceAlpha" type="matrix" values="0 0 0 0 0 0 0 0 0 0 0 0 0 0 0 0 0 0 127 0"/>
            <feOffset dy="4"/>
            <feGaussianBlur stdDeviation="2"/>
            <feColorMatrix type="matrix" values="0 0 0 0 0 0 0 0 0 0 0 0 0 0 0 0 0 0 0.25 0"/>
            <feBlend mode="normal" in2="BackgroundImageFix" result="effect1_dropShadow"/>
            <feBlend mode="normal" in="SourceGraphic" in2="effect1_dropShadow" result="shape"/>
        </filter>
        <filter id="filter7_d" x="91" y="320" width="93.7055" height="73.0184" filterUnits="userSpaceOnUse" color-interpolation-filters="sRGB">
            <feFlood flood-opacity="0" result="BackgroundImageFix"/>
            <feColorMatrix in="SourceAlpha" type="matrix" values="0 0 0 0 0 0 0 0 0 0 0 0 0 0 0 0 0 0 127 0"/>
            <feOffset dy="4"/>
            <feGaussianBlur stdDeviation="2"/>
            <feColorMatrix type="matrix" values="0 0 0 0 0 0 0 0 0 0 0 0 0 0 0 0 0 0 0.25 0"/>
            <feBlend mode="normal" in2="BackgroundImageFix" result="effect1_dropShadow"/>
            <feBlend mode="normal" in="SourceGraphic" in2="effect1_dropShadow" result="shape"/>
        </filter>
        <filter id="filter8_d" x="13" y="312" width="51.3671" height="64" filterUnits="userSpaceOnUse" color-interpolation-filters="sRGB">
            <feFlood flood-opacity="0" result="BackgroundImageFix"/>
            <feColorMatrix in="SourceAlpha" type="matrix" values="0 0 0 0 0 0 0 0 0 0 0 0 0 0 0 0 0 0 127 0"/>
            <feOffset dy="4"/>
            <feGaussianBlur stdDeviation="2"/>
            <feColorMatrix type="matrix" values="0 0 0 0 0 0 0 0 0 0 0 0 0 0 0 0 0 0 0.25 0"/>
            <feBlend mode="normal" in2="BackgroundImageFix" result="effect1_dropShadow"/>
            <feBlend mode="normal" in="SourceGraphic" in2="effect1_dropShadow" result="shape"/>
        </filter>
        <filter id="filter9_d" x="658" y="30" width="61" height="62.0505" filterUnits="userSpaceOnUse" color-interpolation-filters="sRGB">
            <feFlood flood-opacity="0" result="BackgroundImageFix"/>
            <feColorMatrix in="SourceAlpha" type="matrix" values="0 0 0 0 0 0 0 0 0 0 0 0 0 0 0 0 0 0 127 0"/>
            <feOffset dy="4"/>
            <feGaussianBlur stdDeviation="2"/>
            <feColorMatrix type="matrix" values="0 0 0 0 0 0 0 0 0 0 0 0 0 0 0 0 0 0 0.25 0"/>
            <feBlend mode="normal" in2="BackgroundImageFix" result="effect1_dropShadow"/>
            <feBlend mode="normal" in="SourceGraphic" in2="effect1_dropShadow" result="shape"/>
        </filter>
    </defs>
</svg>